<svg width="24" height="24" viewBox="0 0 24 24" fill="none" xmlns="http://www.w3.org/2000/svg">
<g clip-path="url(#clip0_156_155)">
<path d="M7.0001 10H10.0001V7.00001L6.5001 3.50001C7.61973 2.96528 8.8776 2.79081 10.1005 3.00063C11.3234 3.21045 12.4512 3.79422 13.3285 4.67158C14.2059 5.54893 14.7897 6.67671 14.9995 7.89961C15.2093 9.12251 15.0348 10.3804 14.5001 11.5L20.5001 17.5C20.8979 17.8978 21.1214 18.4374 21.1214 19C21.1214 19.5626 20.8979 20.1022 20.5001 20.5C20.1023 20.8978 19.5627 21.1213 19.0001 21.1213C18.4375 21.1213 17.8979 20.8978 17.5001 20.5L11.5001 14.5C10.3805 15.0347 9.1226 15.2092 7.8997 14.9994C6.6768 14.7896 5.54903 14.2058 4.67167 13.3284C3.79432 12.4511 3.21054 11.3233 3.00072 10.1004C2.7909 8.87751 2.96537 7.61964 3.5001 6.50001L7.0001 10Z" stroke="#035279" stroke-width="2" stroke-linecap="round" stroke-linejoin="round"/>
</g>
<defs>
<clipPath id="clip0_156_155">
<rect width="24" height="24" fill="white"/>
</clipPath>
</defs>
</svg>
