<svg width="142" height="106" viewBox="0 0 142 106" fill="none" xmlns="http://www.w3.org/2000/svg">
<path d="M4.15826 57.7628C4.15826 57.7628 2.57287 12.9473 44.7517 21.992C67.2856 26.8238 79.0037 17.8844 84.2361 11.5649C88.0021 7.02278 93.1092 3.94863 98.7114 2.67815C112.886 -0.534242 137.155 -1.65331 148.729 23.4534C165.649 60.1458 137.807 100.505 121.847 110.175C105.886 119.845 70.2621 102.368 70.2621 102.368C70.2621 102.368 44.9961 94.837 28.3903 112.275C11.7844 129.713 4.15826 57.7628 4.15826 57.7628Z" stroke="white" stroke-width="0.316" stroke-miterlimit="10"/>
<path d="M129.015 93.3298H20.3881C18.062 93.3298 16.1382 91.3395 16.1382 88.8401V24.3947C16.1382 21.8896 18.0674 19.905 20.3881 19.905H129.015C131.342 19.905 133.265 21.8953 133.265 24.3947V88.8335C133.265 91.3399 131.341 93.3298 129.015 93.3298Z" fill="white" stroke="white"/>
<path d="M20.1944 26.391L129.207 26.391V86.8346H20.1944V26.391Z" fill="#035279" stroke="white"/>
<path d="M62.6475 101.565V94.3298H86.763V101.565H62.6475Z" fill="white" stroke="white"/>
<path d="M56.0066 107.707C56.2473 104.807 58.5617 102.565 61.3325 102.565H88.0773C90.8418 102.565 93.1562 104.807 93.3969 107.707H56.0066Z" fill="white" stroke="white"/>
<path d="M25.9515 81.9021V57.3215H31.6127V81.9021H25.9515Z" fill="white" stroke="white"/>
<path d="M45.234 62.4498H38.5729V82.4021H45.234V62.4498Z" fill="#035279" stroke="white" stroke-width="0.316" stroke-miterlimit="10"/>
<path d="M52.1949 81.9021V71.8102H57.8561V81.9021H52.1949Z" fill="white" stroke="white"/>
<path d="M71.4718 67.5646H64.8107V82.4022H71.4718V67.5646Z" fill="#035279" stroke="white" stroke-width="0.316" stroke-miterlimit="10"/>
<path d="M97.7152 51.6408H91.0541V82.4021H97.7152V51.6408Z" fill="#035279" stroke="white" stroke-width="0.316" stroke-miterlimit="10"/>
<path d="M78.432 81.9021V66.4386H84.0931V81.9021H78.432Z" fill="white" stroke="white"/>
<path d="M104.676 81.9021V42.1811H110.337V81.9021H104.676Z" fill="white" stroke="white"/>
<path d="M123.952 45.3214H117.291V82.4087H123.952V45.3214Z" fill="#035279" stroke="white" stroke-width="0.316" stroke-miterlimit="10"/>
<path d="M92.1504 39.0019H149.099C149.469 39.0019 149.77 38.686 149.77 38.2976V6.20654C149.77 5.81816 149.469 5.50218 149.099 5.50218H92.1504C91.7806 5.50218 91.4799 5.81816 91.4799 6.20654V38.291C91.4799 38.686 91.7806 39.0019 92.1504 39.0019Z" fill="#035279" stroke="white" stroke-width="0.316" stroke-miterlimit="10"/>
<path d="M149.27 6.161V8.74832H91.9799V6.161C91.9799 6.0516 92.0546 6.00931 92.1002 6.00931H149.149C149.195 6.00931 149.27 6.05159 149.27 6.161Z" fill="white" stroke="white"/>
<path d="M120.136 23.8882C120.136 29.997 115.424 34.9473 109.608 34.9473C103.793 34.9473 99.0809 29.997 99.0809 23.8882H105.09C105.09 26.5082 107.114 28.6344 109.608 28.6344C112.102 28.6344 114.126 26.5082 114.126 23.8882C114.126 21.2683 112.102 19.142 109.608 19.142V12.8292C115.424 12.8226 120.136 17.7794 120.136 23.8882Z" fill="#035279" stroke="white" stroke-width="0.316" stroke-miterlimit="10"/>
<path d="M106.97 20.0304C105.83 20.8927 105.09 22.2948 105.09 23.8813H99.0809C99.0809 20.1818 100.81 16.9101 103.461 14.9024L106.97 20.0304Z" fill="#1E91E9" stroke="white" stroke-width="0.316" stroke-miterlimit="10"/>
<path d="M109.608 12.8222V19.1351C108.625 19.1351 107.716 19.4642 106.97 20.0304L103.461 14.9024C105.191 13.5924 107.315 12.8222 109.608 12.8222Z" fill="white" stroke="white" stroke-width="0.316" stroke-miterlimit="10"/>
<path d="M129.547 17.2658V14.5992H132.037V17.2658H129.547Z" fill="#1E91E9" stroke="white"/>
<path d="M134.285 14.7839H140.132" stroke="white" stroke-width="0.316" stroke-miterlimit="10"/>
<path d="M134.285 17.0813H144.844" stroke="white" stroke-width="0.316" stroke-miterlimit="10"/>
<path d="M129.547 24.1449V21.4783H132.037V24.1449H129.547Z" fill="white" stroke="white"/>
<path d="M134.285 21.6629H140.132" stroke="white" stroke-width="0.316" stroke-miterlimit="10"/>
<path d="M134.285 23.9537H144.844" stroke="white" stroke-width="0.316" stroke-miterlimit="10"/>
<path d="M132.537 27.8507H129.047V31.5173H132.537V27.8507Z" fill="#035279" stroke="white" stroke-width="0.316" stroke-miterlimit="10"/>
<path d="M134.285 28.5419H140.132" stroke="white" stroke-width="0.316" stroke-miterlimit="10"/>
<path d="M134.285 30.8327H144.844" stroke="white" stroke-width="0.316" stroke-miterlimit="10"/>
<path d="M1.72035 51.1866H62.504C62.8988 51.1866 63.2184 50.8509 63.2184 50.4362V16.186C63.2184 15.7713 62.8988 15.4356 62.504 15.4356H1.72035C1.32557 15.4356 1.00598 15.7713 1.00598 16.186V50.4362C1.00598 50.8509 1.32557 51.1866 1.72035 51.1866Z" fill="#035279" stroke="white" stroke-width="0.316" stroke-miterlimit="10"/>
<path d="M62.7187 16.1333V18.9313H1.5V16.1333C1.5 16.0007 1.59686 15.9356 1.66423 15.9356H62.5544C62.6221 15.9356 62.7187 16.001 62.7187 16.1333Z" fill="white" stroke="white"/>
<path d="M7.09094 33.7093L14.5855 36.5334L21.4848 41.9773L28.6598 40.0815L35.559 39.5943L42.7841 30.6681L50.2787 25.9812L57.1341 28.0218" stroke="white" stroke-width="0.632" stroke-miterlimit="10"/>
<path d="M7.93831 33.7093C7.93831 34.2383 7.53605 34.6246 7.09104 34.6246C6.64603 34.6246 6.24377 34.2383 6.24377 33.7093C6.24377 33.1803 6.64603 32.794 7.09104 32.794C7.53605 32.794 7.93831 33.1803 7.93831 33.7093Z" fill="#1E91E9" stroke="white"/>
<path d="M15.4328 36.5334C15.4328 37.0624 15.0306 37.4487 14.5855 37.4487C14.1405 37.4487 13.7383 37.0624 13.7383 36.5334C13.7383 36.0044 14.1405 35.6181 14.5855 35.6181C15.0306 35.6181 15.4328 36.0044 15.4328 36.5334Z" fill="#1E91E9" stroke="white"/>
<path d="M22.332 41.9773C22.332 42.5063 21.9297 42.8926 21.4847 42.8926C21.0397 42.8926 20.6375 42.5063 20.6375 41.9773C20.6375 41.4483 21.0397 41.062 21.4847 41.062C21.9297 41.062 22.332 41.4483 22.332 41.9773Z" fill="#1E91E9" stroke="white"/>
<path d="M29.5133 40.0815C29.5133 40.6105 29.111 40.9968 28.666 40.9968C28.221 40.9968 27.8187 40.6105 27.8187 40.0815C27.8187 39.5525 28.221 39.1662 28.666 39.1662C29.111 39.1662 29.5133 39.5525 29.5133 40.0815Z" fill="#1E91E9" stroke="white"/>
<path d="M36.4 39.601C36.4 40.1299 35.9977 40.5162 35.5527 40.5162C35.1077 40.5162 34.7054 40.13 34.7054 39.601C34.7054 39.0719 35.1077 38.6857 35.5527 38.6857C35.9977 38.6857 36.4 39.072 36.4 39.601Z" fill="#1E91E9" stroke="white"/>
<path d="M43.6374 30.6681C43.6374 31.1971 43.2352 31.5834 42.7901 31.5834C42.3451 31.5834 41.9429 31.1971 41.9429 30.6681C41.9429 30.1391 42.3451 29.7528 42.7901 29.7528C43.2351 29.7528 43.6374 30.1391 43.6374 30.6681Z" fill="#1E91E9" stroke="white"/>
<path d="M51.1384 26.0009C51.1384 26.5299 50.7361 26.9162 50.2911 26.9162C49.8461 26.9162 49.4438 26.5299 49.4438 26.0009C49.4438 25.4719 49.8461 25.0856 50.2911 25.0856C50.7361 25.0856 51.1384 25.4719 51.1384 26.0009Z" fill="#1E91E9" stroke="white"/>
<path d="M57.9812 28.0152C57.9812 28.5442 57.5789 28.9305 57.1339 28.9305C56.6889 28.9305 56.2866 28.5442 56.2866 28.0152C56.2866 27.4862 56.6889 27.0999 57.1339 27.0999C57.5789 27.0999 57.9812 27.4862 57.9812 28.0152Z" fill="#1E91E9" stroke="white"/>
</svg>
