<svg width="58" height="67" viewBox="0 0 58 67" fill="none" xmlns="http://www.w3.org/2000/svg">
<path d="M41.3814 -3.21676C41.3779 -3.93437 41 -4.62056 40.3307 -5.12477C39.6614 -5.62898 38.7554 -5.91003 37.8113 -5.90628L19.5255 -5.81836C18.5815 -5.81304 17.6775 -5.52327 17.0117 -5.01264C16.3459 -4.502 15.9728 -3.81221 15.9742 -3.0946L16.0121 7.95751L41.4193 7.83535L41.3814 -3.21676ZM9.18817 60.7795C14.4174 64.7102 21.4918 66.8979 28.8595 66.8624C36.2272 66.827 43.2865 64.5714 48.4886 60.5906L49.0697 60.1448L49.0804 60.1368C53.3551 56.9244 56.1727 52.7616 57.1225 48.2556C58.0722 43.7496 57.1042 39.1361 54.3598 35.0882C51.4262 30.6653 48.8189 26.6214 47.8338 25.0874C47.6034 24.7289 47.3985 24.3612 47.22 23.9858L42.0045 12.9901C41.7829 12.5218 41.624 12.0375 41.5303 11.5446L31.1672 11.5944L31.2635 39.6922L35.2577 39.673C35.9048 39.6699 36.526 39.8624 36.9848 40.208C37.4436 40.5536 37.7023 41.0241 37.7039 41.5161C37.7056 42.008 37.4502 42.481 36.9938 42.831C36.5374 43.181 35.9175 43.3794 35.2704 43.3825L22.3693 43.4446C21.7222 43.4477 21.1009 43.2553 20.6421 42.9096C20.1833 42.564 19.9247 42.0935 19.923 41.6016C19.9213 41.1096 20.1767 40.6366 20.6331 40.2866C21.0895 39.9366 21.7094 39.7382 22.3566 39.7351L26.3849 39.7157L26.2886 11.6179L15.9255 11.6677C15.8353 12.1614 15.6797 12.6472 15.4613 13.1176L10.3554 24.0894C10.1533 24.5237 9.91595 24.9481 9.64485 25.3602L3.14666 35.2385C0.483938 39.3401 -0.421706 43.9686 0.557365 48.4718C1.53644 52.975 4.35085 57.126 8.604 60.3396L9.18817 60.7795Z" fill="#DAF3FF"/>
</svg>
