<?xml version="1.0" encoding="UTF-8" standalone="no"?>
<!DOCTYPE svg PUBLIC "-//W3C//DTD SVG 1.1//EN" "http://www.w3.org/Graphics/SVG/1.1/DTD/svg11.dtd">
<!-- Created with Inkscape (http://www.inkscape.org/) by Marsupilami -->
<svg
   xmlns:svg="http://www.w3.org/2000/svg"
   xmlns="http://www.w3.org/2000/svg"
   id="svg167"
   version="1.1"
   width="465.63501"
   height="90.067001">
  <defs
     id="defs164" />
  <g
     id="g46">
    <g
       id="g34">
      <path
         style="fill:#ffd502;fill-opacity:1"
         id="path28"
         d="M 43.738,74.43 C 24.889,72.629 8.208,63.582 2.028,53.145 c 0.321,1.957 2.551,6.231 3.572,9.048 0.745,2.063 1.826,3.743 2.331,5.257 7.803,5.523 16.756,8.408 29.065,9.584 12.689,1.211 23.848,-0.342 32.648,-4.543 -7.722,1.965 -16.228,2.859 -25.906,1.939 z" />
      <path
         style="fill:#ffd502;fill-opacity:1"
         id="path30"
         d="M 29.049,36.479 C 22.561,29.425 16.735,22.297 11.69,15.349 c -0.68,0.89 -1.444,1.933 -2.248,3.115 -1.109,1.62 -2.003,3.14 -2.677,4.404 4.964,5.439 10.465,10.93 16.425,16.319 C 40.174,54.548 56.724,64.518 69.948,71.709 58.026,62.935 43.575,52.255 29.049,36.479 Z" />
      <path
         style="fill:#ffd502;fill-opacity:1"
         id="path32"
         d="M 55.863,24.018 C 51.013,14.364 47.217,7.973 41.629,0.475 40.904,0.552 39.686,1.162 37.54,1.497 35.932,1.751 34.298,1.585 32.997,2.106 41.147,10.661 47.722,19.611 54.953,32.49 63.181,47.134 67.307,58.813 70.773,71.03 69.304,56.962 65.009,42.223 55.863,24.018 Z" />
    </g>
    <path
       style="fill:#005a9e;fill-opacity:1"
       id="path36"
       d="M 47.933,89.362 C 24.359,89.362 5.248,70.883 5.248,48.084 5.248,25.287 24.241,7.469 47.817,7.469 c 23.115,0 42.053,17.104 42.778,39.288 0.022,-0.57 0.037,-1.145 0.037,-1.72 C 90.632,20.161 70.344,0 45.316,0 20.29,0 0,20.161 0,45.037 c 0,24.87 20.29,45.03 45.316,45.03 4.879,0 9.576,-0.77 13.979,-2.186 -3.618,0.961 -7.426,1.481 -11.362,1.481 z" />
    <path
       style="fill:#b51e83;fill-opacity:1"
       id="path38"
       d="M 23.515,25.982 C 39.669,9.515 64.802,8.267 79.649,23.196 88.717,32.317 92.319,46.075 89.22,57.875 93.419,43.835 90.848,27.921 80.185,17.198 64.568,1.492 38.229,2.477 22.074,18.949 11.436,29.795 7.612,44.808 10.701,58.282 10.257,46.969 14.574,35.097 23.515,25.982 Z" />
    <path
       style="fill:#009066;fill-opacity:1"
       id="path40"
       d="M 88.411,49.105 C 88.278,39.194 84.49,30.028 77.523,25.231 64.049,15.961 43.117,23.212 30.07,42.268 23.315,52.134 20.161,63.041 20.547,72.556 17.559,61.4 20.02,47.574 28.221,35.596 41.271,16.54 63.887,9.38 78.743,19.601 c 8.799,6.053 13.075,16.932 12.242,28.689 0,0 -0.266,3.389 -0.583,4.868 -0.301,1.405 -1.081,4.45 -1.39,5.346 -0.307,0.892 -0.601,-9.399 -0.601,-9.399 z" />
    <path
       style="fill:#f36f21;fill-opacity:1"
       id="path42"
       d="M 43.634,43.346 C 30.329,57.455 27.317,76.225 36.91,85.27 c 0.426,0.404 0.87,0.775 1.331,1.125 C 29.796,77.95 32.333,61.776 44.016,49.155 54.753,37.55 73.023,32.478 81.864,40.819 89.658,48.17 88.615,62.281 80.065,74.211 91.912,60.358 94.258,42.825 85.088,34.18 75.496,25.137 56.936,29.24 43.634,43.346 Z" />
    <path
       style="fill:#ed1c24;fill-opacity:1"
       id="path44"
       d="m 56.053,57.726 c -8.957,7.782 -11.952,18.997 -6.689,25.058 4.124,4.746 12.091,4.916 19.654,1.023 -6.36,2.93 -12.922,2.57 -16.419,-1.455 -4.669,-5.373 -2.112,-15.236 5.706,-22.032 7.823,-6.793 17.945,-7.946 22.611,-2.571 3.5,4.026 2.943,10.573 -0.85,16.462 4.907,-6.943 5.854,-14.859 1.732,-19.604 -5.262,-6.056 -16.791,-4.663 -25.745,3.119 z" />
  </g>
  <g
     style="fill:#ed1c24;fill-opacity:1"
     id="g74">
    <path
       style="fill:#ed1c24;fill-opacity:1"
       id="path48"
       d="m 160.674,53.218 c -3.369,2.091 -6.214,2.729 -10.454,2.729 h -5.459 l -3.252,15.273 h -6.736 l 8.595,-40.13 h 10.454 c 4.937,0 7.898,0.755 9.873,2.091 2.381,1.626 3.659,4.239 3.659,7.144 -0.001,5.982 -2.731,10.396 -6.68,12.893 z M 153.937,36.55 h -5.053 l -2.961,13.938 h 5.227 c 3.194,0 4.937,-0.697 6.214,-2.033 1.743,-1.8 2.788,-4.355 2.788,-6.795 -10e-4,-3.309 -1.801,-5.11 -6.215,-5.11 z" />
    <path
       style="fill:#ed1c24;fill-opacity:1"
       id="path50"
       d="m 183.853,50.412 c -0.513,-0.308 -1.025,-0.41 -1.794,-0.41 -1.794,0 -3.793,1.385 -6.048,4.562 l -3.537,16.657 h -5.587 l 3.69,-17.324 c 0.769,-3.536 0.717,-5.484 0.205,-7.278 l 5.228,-2.152 c 0.563,1.333 0.769,3.28 0.41,5.074 2.358,-2.973 5.228,-4.869 7.74,-4.869 0.922,0 1.384,0.103 2.152,0.41 z" />
    <path
       style="fill:#ed1c24;fill-opacity:1"
       id="path52"
       d="m 192.921,71.836 c -5.74,0 -9.021,-3.332 -9.021,-9.277 0,-9.994 6.1,-17.888 14.71,-17.888 5.945,0 9.175,3.435 9.175,9.123 0.001,9.483 -5.33,18.042 -14.864,18.042 z m 4.819,-22.859 c -5.126,0 -7.791,8.2 -7.791,14.095 0,3.128 1.486,4.511 3.998,4.511 5.022,0 7.739,-7.688 7.739,-13.993 0,-3.486 -1.64,-4.613 -3.946,-4.613 z" />
    <path
       style="fill:#ed1c24;fill-opacity:1"
       id="path54"
       d="m 240.46,37.944 c -1.8,-1.626 -3.949,-2.265 -6.504,-2.265 -3.543,0 -6.795,1.917 -9.176,4.994 -3.311,4.24 -5.228,12.312 -5.228,17.19 0,5.75 2.904,8.77 8.131,8.77 2.672,0 4.937,-0.871 7.84,-2.729 l 2.382,4.415 c -3.717,2.438 -7.666,3.6 -12.021,3.6 -8.537,0 -13.59,-5.4 -13.59,-14.287 0,-6.446 2.439,-14.17 6.562,-19.281 4.123,-5.168 10.163,-7.956 16.087,-7.956 3.891,0 7.375,1.22 9.35,3.194 z" />
    <path
       style="fill:#ed1c24;fill-opacity:1"
       id="path56"
       d="m 258.587,50.412 c -0.513,-0.308 -1.025,-0.41 -1.794,-0.41 -1.794,0 -3.793,1.385 -6.048,4.562 l -3.537,16.657 h -5.586 l 3.689,-17.324 c 0.77,-3.536 0.718,-5.484 0.205,-7.278 l 5.229,-2.152 c 0.563,1.333 0.769,3.28 0.41,5.074 2.357,-2.973 5.228,-4.869 7.739,-4.869 0.923,0 1.384,0.103 2.152,0.41 z" />
    <path
       style="fill:#ed1c24;fill-opacity:1"
       id="path58"
       d="m 279.188,56.972 c -2.152,2.102 -5.689,3.28 -11.02,3.28 -1.436,0 -2.665,-0.205 -3.126,-0.205 -0.103,0.513 -0.308,1.896 -0.308,2.717 0,3.23 1.896,4.768 4.715,4.768 2.717,0 4.921,-0.924 7.329,-2.821 l 1.743,3.487 c -3.127,2.512 -6.202,3.689 -10.559,3.689 -5.535,0 -9.226,-3.33 -9.226,-9.481 0,-5.177 2.255,-10.764 5.792,-14.197 2.562,-2.461 5.433,-3.537 8.764,-3.537 5.023,0 8.201,2.307 8.201,6.919 0.002,2.101 -0.819,3.947 -2.305,5.381 z m -6.611,-8.097 c -2.922,0 -5.484,2.307 -6.612,7.176 0.308,0 1.384,0.153 2.256,0.153 3.126,0 5.278,-0.461 6.509,-1.691 0.666,-0.666 1.076,-1.486 1.076,-2.562 -10e-4,-1.744 -0.872,-3.076 -3.229,-3.076 z" />
    <path
       style="fill:#ed1c24;fill-opacity:1"
       id="path60"
       d="m 305.683,62.201 c -1.179,5.485 -0.974,7.124 -0.256,8.354 l -4.818,1.127 c -0.666,-0.818 -1.076,-2.1 -0.974,-3.74 -1.999,2.459 -4.664,3.793 -7.637,3.793 -5.177,0 -7.637,-3.076 -7.637,-8.919 0,-5.177 2.05,-10.713 5.689,-14.301 2.46,-2.408 5.688,-3.639 8.662,-3.639 2.306,0 4.1,0.358 4.972,0.82 0,-0.257 0.461,-2.614 0.666,-3.485 l 1.845,-8.713 5.382,0.922 z m -7.175,-12.763 c -1.641,0 -3.485,0.82 -4.716,2.357 -2.102,2.563 -3.536,7.586 -3.536,11.123 0,2.818 1.024,4.305 3.126,4.305 2.152,0 4.972,-1.897 6.561,-4.612 l 2.614,-12.147 c -1.076,-0.718 -2.153,-1.026 -4.049,-1.026 z" />
    <path
       style="fill:#ed1c24;fill-opacity:1"
       id="path62"
       d="m 317.315,71.221 h -5.74 l 5.433,-25.627 5.895,-0.871 z m 4.255,-29.676 c -2.051,0 -3.742,-1.691 -3.742,-3.742 0,-2.101 1.691,-3.792 3.793,-3.792 2.05,0 3.69,1.691 3.69,3.741 0,2.102 -1.641,3.793 -3.741,3.793 z" />
    <path
       style="fill:#ed1c24;fill-opacity:1"
       id="path64"
       d="m 339.813,49.285 h -4.972 l -2.921,13.94 c -0.205,0.974 -0.308,1.845 -0.308,2.512 0,1.641 0.769,2.154 2.409,2.154 0.819,0 1.794,-0.154 2.613,-0.514 v 3.486 c -1.794,0.717 -3.587,1.076 -5.381,1.076 -3.485,0 -5.434,-1.744 -5.434,-4.357 0,-0.922 0.103,-2.256 0.359,-3.538 l 3.126,-14.76 h -2.921 l 0.819,-3.998 h 2.922 c 0.513,-2.357 1.025,-4.356 1.691,-6.305 l 5.997,-1.384 c -0.718,2.204 -1.589,5.229 -2.102,7.688 h 6.201 z" />
    <path
       style="fill:#ed1c24;fill-opacity:1"
       id="path66"
       d="m 376.717,49.965 c 4.238,0.813 6.389,4.065 6.389,8.073 0,2.961 -1.453,6.62 -4.355,9.351 -3.021,2.787 -6.215,3.832 -12.895,3.832 H 353.08 l 8.597,-40.13 h 12.543 c 7.607,0 11.268,3.311 11.268,8.711 -10e-4,4.357 -2.732,8.48 -8.771,10.163 z m -7.259,3.195 h -5.924 l -2.672,12.603 h 6.389 c 2.381,0 4.123,-0.639 5.459,-1.569 1.742,-1.219 3.078,-3.716 3.078,-6.213 0,-3.195 -1.569,-4.821 -6.33,-4.821 z m 3.078,-16.435 h -5.576 l -2.264,10.918 h 5.807 c 2.498,0 4.008,-0.465 5.17,-1.395 1.451,-1.161 2.496,-2.903 2.496,-5.11 -10e-4,-2.903 -1.393,-4.413 -5.633,-4.413 z" />
    <path
       style="fill:#ed1c24;fill-opacity:1"
       id="path68"
       d="m 409.11,52.565 -2.102,10.251 c -0.666,3.126 -0.357,4.46 0.924,5.843 l -4.613,3.434 c -1.385,-1.127 -1.947,-2.562 -1.947,-4.254 -1.846,2.512 -4.459,3.998 -7.791,3.998 -4.049,0 -6.766,-2.717 -6.766,-8.252 0,-5.74 2.152,-11.276 5.484,-14.71 2.768,-2.819 6.15,-4.203 10.301,-4.203 2.973,0 5.998,0.615 8.047,1.947 -0.461,1.435 -1.178,4.1 -1.537,5.946 z m -7.176,-3.435 c -2.307,0 -3.945,0.513 -5.945,2.87 -2.307,2.769 -3.383,7.791 -3.383,11.43 0,2.82 0.924,3.896 2.818,3.896 2.359,0 4.973,-2.358 6.152,-4.973 l 2.768,-12.711 c -0.513,-0.307 -1.539,-0.512 -2.41,-0.512 z" />
    <path
       style="fill:#ed1c24;fill-opacity:1"
       id="path70"
       d="m 436.424,52.667 -3.945,18.554 h -5.588 l 3.639,-17.17 c 0.258,-1.128 0.359,-1.948 0.359,-2.512 0,-1.486 -0.666,-2.05 -2.051,-2.05 -1.844,0 -4.408,1.281 -7.123,4.817 l -3.588,16.914 h -5.535 l 3.791,-17.939 c 0.615,-3.023 0.668,-4.767 0.104,-6.663 l 5.229,-2.152 c 0.512,1.179 0.82,3.075 0.461,4.869 2.459,-2.973 5.74,-4.612 9.328,-4.612 3.229,0 5.176,1.998 5.176,5.125 -10e-4,0.871 -0.052,1.947 -0.257,2.819 z" />
    <path
       style="fill:#ed1c24;fill-opacity:1"
       id="path72"
       d="m 451.694,42.467 -6.15,28.754 h -5.637 l 6.098,-28.651 c 0.719,-3.28 0.82,-5.843 0.41,-7.432 l 5.844,-1.948 c 0.46,1.435 0.409,4.716 -0.565,9.277 z m 2.922,14.095 7.791,14.302 -6.305,0.717 -7.227,-15.172 10.713,-11.583 6.047,1.024 z" />
  </g>
</svg>
