<?xml version="1.0" encoding="UTF-8"?>
<svg xmlns="http://www.w3.org/2000/svg" xmlns:xlink="http://www.w3.org/1999/xlink" width="539.4pt" height="197.9pt" viewBox="0 0 539.4 197.9" version="1.1">
<defs>
<clipPath id="clip1">
  <path d="M 0 0 L 133 0 L 133 197.898438 L 0 197.898438 Z M 0 0 "/>
</clipPath>
<clipPath id="clip2">
  <path d="M 83 1 L 150 1 L 150 197.898438 L 83 197.898438 Z M 83 1 "/>
</clipPath>
<clipPath id="clip3">
  <path d="M 122 24 L 232 24 L 232 197.898438 L 122 197.898438 Z M 122 24 "/>
</clipPath>
<clipPath id="clip4">
  <path d="M 332 128 L 539.398438 128 L 539.398438 174 L 332 174 Z M 332 128 "/>
</clipPath>
</defs>
<g id="surface1">
<g clip-path="url(#clip1)" clip-rule="nonzero">
<path style=" stroke:none;fill-rule:evenodd;fill:rgb(0.392151%,28.637695%,49.804688%);fill-opacity:1;" d="M 0.0507813 98.960938 C 0.90625 99.839844 95.625 170.488281 99.246094 173.1875 C 104.796875 177.320313 110.230469 181.410156 115.785156 185.546875 L 132.285156 197.8125 C 131.121094 196.984375 126.304688 191.492188 124.414063 189.609375 C 122.839844 188.042969 118.359375 182.640625 116.785156 180.851563 C 111.613281 174.964844 103.59375 163.59375 99.402344 156.332031 C 76.613281 116.839844 76.683594 80.808594 99.515625 41.378906 C 106.519531 29.285156 112.96875 21.683594 121.214844 11.855469 C 121.59375 11.402344 121.914063 11.148438 122.285156 10.679688 L 132.421875 -0.015625 L 16.632813 86.46875 C 15.957031 86.972656 0.660156 98.277344 0.0507813 98.960938 Z M 0.0507813 98.960938 "/>
</g>
<g clip-path="url(#clip2)" clip-rule="nonzero">
<path style=" stroke:none;fill-rule:evenodd;fill:rgb(11.376953%,36.083984%,54.101563%);fill-opacity:1;" d="M 132.535156 197.058594 C 131.527344 195.4375 130.101563 193.769531 128.921875 192.164063 C 125.285156 187.214844 121.625 182.128906 118.246094 176.988281 C 111.714844 167.0625 107.757813 160.089844 102.6875 149.507813 C 100.03125 143.964844 97.183594 136.652344 95.449219 130.738281 C 89.007813 108.820313 88.988281 88.878906 97.09375 67.382813 C 101.476563 55.761719 109.277344 43.09375 117.1875 33.523438 L 120.554688 29.507813 C 122.472656 27.316406 124.375 25.058594 126.4375 23.027344 C 129.050781 20.460938 130.425781 18.683594 133.792969 15.601563 C 136.050781 13.539063 139.128906 10.441406 141.503906 8.539063 L 149.53125 1.628906 L 119.863281 20.464844 C 117.800781 21.796875 115.839844 22.972656 113.882813 24.277344 C 112.914063 24.921875 111.917969 25.5625 110.941406 26.15625 C 109.574219 26.988281 109.441406 27.464844 108.597656 28.628906 C 96.554688 45.089844 85.503906 66.878906 83.34375 90.996094 C 81.082031 116.277344 90.265625 141.066406 101.964844 159.386719 C 107.429688 167.941406 110.03125 171.402344 116.222656 179.167969 C 119.273438 182.996094 122.328125 186.109375 125.242188 189.582031 L 130.035156 194.582031 C 130.679688 195.261719 131.835938 196.617188 132.535156 197.058594 Z M 132.535156 197.058594 "/>
</g>
<path style=" stroke:none;fill-rule:evenodd;fill:rgb(44.700623%,57.617188%,66.601563%);fill-opacity:1;" d="M 132.644531 194.347656 C 131.949219 192.238281 128.707031 185.042969 127.457031 181.742188 C 122.316406 168.144531 118.140625 154.371094 116.144531 139.589844 C 113.25 118.164063 115.449219 96.003906 123.78125 78.328125 C 129.734375 65.695313 136.644531 56.132813 145.785156 46.867188 C 146.542969 46.101563 147.199219 45.46875 147.992188 44.738281 L 153.894531 39.398438 C 158.703125 34.914063 169.523438 27.539063 176.003906 23.613281 C 179.671875 21.390625 183.460938 19.242188 187.402344 17.195313 C 191.273438 15.183594 195.457031 13.324219 199.4375 11.328125 C 198.261719 11.488281 160.757813 24.691406 157.867188 25.714844 C 154.390625 26.941406 154.117188 26.652344 151.597656 28.753906 L 144.101563 35.382813 C 143.3125 36.171875 142.492188 36.828125 141.667969 37.613281 C 139.988281 39.214844 138.703125 40.710938 137.121094 42.378906 L 128.511719 52.554688 C 123.414063 59.308594 118.582031 67.265625 114.855469 76.46875 C 102.734375 106.410156 107.523438 139.765625 120.210938 169.242188 C 123.328125 176.476563 128.652344 187.925781 132.644531 194.347656 Z M 132.644531 194.347656 "/>
<path style=" stroke:none;fill-rule:evenodd;fill:rgb(55.664063%,64.646912%,70.896912%);fill-opacity:1;" d="M 131.351563 189.636719 L 127.699219 176.367188 C 123.984375 161.6875 121.578125 146.109375 121.738281 130.753906 C 122.007813 105.6875 129.085938 83.824219 142.6875 65.925781 C 143.960938 64.253906 145.105469 62.757813 146.480469 61.214844 C 147.890625 59.628906 149.050781 58.109375 150.609375 56.671875 L 154.84375 52.390625 C 155.796875 51.28125 158.21875 49.390625 159.410156 48.285156 L 164.101563 44.46875 C 176.402344 34.648438 193.269531 25.941406 208.460938 20.105469 C 210.25 19.414063 212.925781 18.230469 214.667969 17.769531 C 213.347656 17.828125 209.261719 19.089844 207.691406 19.503906 L 168.457031 29.726563 C 165.835938 30.402344 162.355469 33.386719 160.273438 35.019531 L 150.601563 43.171875 C 149.769531 44.003906 149.175781 44.316406 148.28125 45.347656 C 146.683594 47.199219 144.007813 49.339844 141.65625 52.214844 C 138.746094 55.769531 136.628906 57.835938 133.695313 62.230469 C 125.824219 74.027344 120.515625 84.964844 117.546875 99.855469 C 111.90625 128.1875 118.464844 157.0625 128.75 183.339844 C 129.578125 185.460938 130.589844 187.632813 131.351563 189.636719 Z M 131.351563 189.636719 "/>
<path style=" stroke:none;fill-rule:evenodd;fill:rgb(22.363281%,42.747498%,58.396912%);fill-opacity:1;" d="M 91.425781 100.726563 C 91.445313 120.167969 97.378906 137.09375 104.601563 152.09375 C 108.488281 160.175781 111.683594 165.222656 116.175781 172.636719 C 118.265625 176.085938 121.828125 181.265625 124.238281 184.640625 L 129.292969 191.542969 C 128.800781 190.40625 127.375 188.375 126.648438 187.210938 C 125.738281 185.738281 124.871094 184.289063 124.003906 182.789063 C 118.734375 173.65625 113.886719 164.253906 110.039063 154.363281 C 95.09375 115.941406 96.535156 79.992188 120.566406 46.058594 C 124.949219 39.878906 127.347656 37.4375 131.886719 32.164063 L 144.820313 19.722656 C 149.503906 15.441406 153.84375 12.34375 158.804688 8.503906 C 159.757813 7.769531 160.816406 7.105469 161.714844 6.316406 C 160.863281 6.621094 156.394531 9.34375 155.195313 10.035156 C 152.945313 11.324219 150.90625 12.503906 148.707031 13.820313 C 144.414063 16.398438 140.113281 18.863281 135.71875 21.382813 C 131.355469 23.882813 127.066406 26.480469 122.722656 28.941406 C 120.273438 30.335938 119.53125 31.558594 117.550781 34.046875 C 103.808594 51.300781 91.402344 73.171875 91.425781 100.726563 Z M 91.425781 100.726563 "/>
<g clip-path="url(#clip3)" clip-rule="nonzero">
<path style=" stroke:none;fill-rule:evenodd;fill:rgb(66.601563%,71.679688%,75.389099%);fill-opacity:1;" d="M 134.820313 197.242188 C 134.59375 195.199219 133.644531 192.113281 133.171875 189.980469 C 129.140625 171.859375 126.75 152.234375 127.816406 133.710938 C 129.054688 112.222656 134.742188 94.210938 144.285156 79.089844 C 146.191406 76.070313 151.171875 69.132813 153.722656 66.523438 L 161.472656 58.699219 C 161.921875 58.335938 162.195313 57.984375 162.632813 57.617188 C 163.453125 56.925781 164.203125 56.230469 165.0625 55.550781 C 177.710938 45.566406 188.777344 39.003906 204.683594 33.027344 C 209.09375 31.371094 213.394531 29.933594 217.96875 28.484375 C 220.238281 27.765625 222.519531 27.15625 224.832031 26.515625 C 226.722656 25.992188 230.449219 25.28125 231.964844 24.644531 C 229.40625 24.722656 196.285156 29.394531 191.429688 30.050781 C 186.871094 30.671875 187.765625 30.148438 184.253906 32.027344 C 176.148438 36.378906 166.558594 42.878906 159.75 48.796875 L 152.492188 55.503906 C 151.714844 56.296875 151.058594 57.003906 150.332031 57.839844 C 149.9375 58.300781 149.660156 58.511719 149.226563 58.972656 L 145.96875 62.78125 C 145.246094 63.636719 144.578125 64.464844 143.902344 65.378906 C 140.972656 69.339844 138.992188 72.046875 136.464844 76.402344 C 115.167969 113.140625 121.089844 156.597656 134.007813 195.585938 L 134.519531 196.84375 C 134.757813 197.234375 134.566406 196.984375 134.820313 197.242188 Z M 134.820313 197.242188 "/>
</g>
<path style=" stroke:none;fill-rule:evenodd;fill:rgb(33.714294%,50.584412%,62.693787%);fill-opacity:1;" d="M 130.460938 191.9375 L 127.425781 186.109375 C 124.726563 180.996094 121.117188 173.269531 119.027344 168.011719 C 115.582031 159.34375 112.691406 151.003906 110.421875 141.292969 C 105.648438 120.882813 105.953125 98.675781 112.960938 79.714844 C 119.117188 63.046875 129.109375 48.871094 141.195313 37.296875 C 141.917969 36.605469 142.617188 35.800781 143.371094 35.140625 L 150.453125 28.894531 C 159.789063 21.144531 168.652344 15.109375 179.171875 8.964844 C 179.910156 8.527344 181.445313 7.722656 181.941406 7.28125 L 156.535156 18.597656 C 152.332031 20.550781 148.023438 22.421875 143.78125 24.308594 C 138.238281 26.785156 138.710938 25.980469 135.265625 29.605469 C 134.03125 30.90625 130.796875 34.148438 129.75 35.484375 L 124.515625 41.8125 C 116.507813 51.878906 109.128906 64.964844 105.257813 77.953125 C 94.335938 114.601563 105.703125 149.003906 123.394531 180.511719 C 124.167969 181.886719 129.433594 190.875 130.460938 191.9375 Z M 130.460938 191.9375 "/>
<path style=" stroke:none;fill-rule:evenodd;fill:rgb(0%,0%,0%);fill-opacity:1;" d="M 484.945313 99.398438 L 485.011719 100.257813 L 490.382813 100.242188 L 490.425781 95.492188 L 489.632813 95.351563 L 484.941406 95.378906 Z M 215.039063 118.558594 L 215.039063 114.722656 C 213.289063 114.628906 211.457031 114.691406 209.695313 114.683594 C 207.953125 114.671875 206.003906 114.71875 205.902344 116.570313 C 205.792969 118.53125 207.796875 118.601563 209.472656 118.59375 C 211.316406 118.585938 213.203125 118.636719 215.039063 118.558594 Z M 460.535156 118.476563 L 460.515625 114.734375 C 458.875 114.5625 456.753906 114.6875 455.101563 114.683594 C 453.4375 114.671875 451.46875 114.671875 451.375 116.578125 C 451.277344 118.53125 453.101563 118.601563 454.882813 118.59375 C 456.414063 118.585938 459.167969 118.761719 460.535156 118.476563 Z M 178.53125 107.007813 C 180.527344 107.316406 183.769531 107.046875 185.945313 107.121094 C 188.578125 107.214844 190.359375 106.605469 190.222656 103.796875 C 190.097656 101.269531 188.375 100.570313 185.949219 100.582031 C 183.761719 100.589844 180.667969 100.398438 178.59375 100.636719 Z M 178.375 117.96875 C 179.609375 118.328125 184.335938 118.097656 185.945313 118.105469 C 188.496094 118.113281 190.613281 117.792969 190.574219 115.023438 C 190.539063 112.148438 188.320313 111.742188 186.167969 111.753906 C 184.527344 111.761719 179.640625 111.554688 178.40625 111.871094 Z M 392.683594 118.433594 C 398.035156 118.9375 402.085938 118.105469 402.121094 112.601563 C 402.160156 106.902344 397.242188 106.332031 392.726563 106.761719 Z M 485.097656 122.832031 L 490.351563 122.820313 L 490.421875 102.570313 L 485 102.472656 C 484.824219 104.480469 484.785156 121.800781 485.097656 122.832031 Z M 344.8125 106.960938 C 338.398438 108.839844 339.925781 120.691406 347.902344 119.09375 C 354.714844 117.726563 353.035156 104.550781 344.8125 106.960938 Z M 370.484375 107.050781 C 363.859375 109.082031 366.058594 121.238281 374.15625 118.988281 C 380.355469 117.261719 378.804688 104.503906 370.484375 107.050781 Z M 278.023438 106.992188 C 271.476563 108.925781 273.296875 120.964844 281.421875 119.039063 C 287.839844 117.519531 286.3125 104.542969 278.023438 106.992188 Z M 525.074219 107.042969 C 518.402344 109.097656 520.683594 121.242188 528.746094 118.984375 C 534.9375 117.253906 533.375 104.488281 525.074219 107.042969 Z M 437.460938 104.777344 L 437.417969 102.558594 L 432.046875 102.480469 C 431.871094 104.867188 431.753906 121.355469 432.125 122.8125 L 437.359375 122.820313 L 437.445313 106.929688 L 443.496094 106.921875 L 443.488281 102.289063 C 442.109375 102.082031 440.8125 102.214844 439.710938 102.710938 C 438.546875 103.226563 438.347656 103.753906 437.832031 104.371094 C 437.632813 104.609375 437.640625 104.601563 437.460938 104.777344 Z M 471.425781 102.460938 L 468.074219 102.484375 C 467.96875 103.667969 467.84375 105.667969 468.164063 106.769531 L 471.4375 106.78125 C 471.433594 120.257813 469.84375 123.367188 481.804688 122.804688 L 481.875 118.84375 C 478.753906 118.628906 476.886719 118.726563 476.855469 115.253906 C 476.835938 113.539063 476.660156 108.097656 476.976563 106.789063 L 482.171875 106.765625 L 482.140625 102.480469 L 476.902344 102.46875 L 476.855469 95.453125 L 471.433594 95.390625 Z M 265.421875 122.820313 L 265.410156 118.371094 C 263.320313 118.371094 258.046875 118.621094 256.378906 118.253906 C 254.296875 117.796875 252.511719 115.503906 252.539063 112.820313 C 252.570313 110.140625 254.339844 108.003906 256.40625 107.402344 C 257.871094 106.976563 263.441406 107.203125 265.421875 107.203125 L 265.414063 102.480469 C 261.4375 102.484375 255.1875 101.9375 252.019531 103.472656 C 245.003906 106.867188 244.804688 118.503906 251.953125 121.808594 C 255.308594 123.359375 261.367188 122.820313 265.421875 122.820313 Z M 499.746094 122.820313 L 506.269531 122.820313 L 515 102.519531 L 508.546875 102.488281 L 503.097656 116.300781 C 502.179688 115.378906 498.578125 104.601563 497.605469 102.480469 L 491.195313 102.488281 C 491.386719 103.515625 494.625 111.089844 495.285156 112.679688 C 496.027344 114.472656 496.667969 116.066406 497.394531 117.820313 C 497.910156 119.0625 498.785156 122.175781 499.746094 122.820313 Z M 224.734375 122.832031 L 229.992188 122.820313 L 230.070313 107.039063 C 231.53125 107.039063 234.546875 106.878906 235.832031 107.121094 C 237.777344 107.496094 238.054688 108.664063 238.042969 110.839844 C 238.015625 114.808594 238.011719 118.816406 238.042969 122.789063 L 243.511719 122.808594 C 243.535156 119.519531 243.515625 116.277344 243.515625 113.039063 C 243.515625 105.285156 243.242188 102.46875 234.542969 102.480469 C 231.242188 102.484375 227.941406 102.476563 224.640625 102.480469 C 224.46875 104.523438 224.417969 121.753906 224.734375 122.832031 Z M 332.28125 122.820313 L 332.28125 117.835938 C 329.851563 117.832031 321.777344 118.136719 320.023438 117.710938 C 314.199219 116.269531 314.679688 102.042969 319.71875 100.828125 C 321.582031 100.378906 329.675781 100.691406 332.164063 100.691406 L 332.261719 95.378906 C 327.253906 95.378906 319.078125 94.730469 315.246094 96.738281 C 307.074219 101.027344 307.273438 117.355469 314.835938 121.589844 C 318.152344 123.453125 327.789063 122.820313 332.28125 122.820313 Z M 446.914063 106.9375 C 454.71875 107.441406 460.972656 105.257813 460.492188 110.714844 C 457.648438 111.097656 451.414063 110.277344 449.199219 111.082031 C 446.683594 111.988281 444.511719 115.550781 445.929688 119.148438 C 447.230469 122.457031 450.023438 122.828125 454.226563 122.820313 C 458.203125 122.820313 462.183594 122.816406 466.164063 122.820313 C 466.195313 119.566406 466.167969 116.300781 466.171875 113.042969 C 466.171875 105.953125 465.351563 102.464844 456.863281 102.480469 C 453.636719 102.484375 450.164063 102.355469 446.96875 102.511719 Z M 201.4375 106.945313 C 208.511719 107.589844 215.8125 105.011719 214.960938 110.761719 C 212.269531 110.839844 205.476563 110.34375 203.460938 111.191406 C 200.917969 112.261719 199.160156 115.84375 200.460938 119.179688 C 201.734375 122.4375 204.542969 122.828125 208.816406 122.820313 C 212.785156 122.820313 216.757813 122.820313 220.730469 122.820313 C 220.757813 119.492188 220.730469 116.152344 220.734375 112.820313 C 220.746094 105.398438 219.394531 102.46875 211.234375 102.480469 C 208.761719 102.484375 203.601563 102.195313 201.449219 102.566406 Z M 277.996094 102.5625 C 271.566406 103.269531 267.15625 107.429688 268.109375 114.636719 C 268.976563 121.175781 274.195313 123.964844 281.542969 123.230469 C 288.039063 122.585938 292.175781 118.371094 291.410156 111.101563 C 290.761719 104.921875 284.933594 101.804688 277.996094 102.5625 Z M 524.972656 102.585938 C 518.570313 103.351563 514.140625 107.523438 515.265625 114.90625 C 516.253906 121.417969 521.722656 123.984375 528.824219 123.210938 C 535.296875 122.503906 539.425781 118.167969 538.519531 110.917969 C 537.769531 104.929688 531.980469 101.742188 524.972656 102.585938 Z M 344.109375 102.660156 C 337.816406 103.714844 333.578125 107.890625 334.957031 115.328125 C 336.117188 121.589844 341.796875 124.140625 348.910156 123.152344 C 355.164063 122.285156 359.28125 117.726563 358.058594 110.453125 C 357.070313 104.570313 351.023438 101.507813 344.109375 102.660156 Z M 370.019531 102.644531 C 363.6875 103.644531 359.441406 107.71875 360.746094 115.203125 C 361.875 121.667969 367.457031 124.023438 374.605469 123.167969 C 380.898438 122.417969 385.039063 117.753906 383.871094 110.601563 C 382.890625 104.582031 376.992188 101.542969 370.019531 102.644531 Z M 387.09375 130.203125 L 392.613281 130.191406 L 392.699219 122.859375 C 397.472656 122.507813 401.257813 123.714844 404.441406 120.660156 C 406.84375 118.359375 408.296875 114.757813 407.546875 110.023438 C 406.019531 100.386719 395.464844 102.484375 387.144531 102.480469 Z M 172.40625 122.808594 C 176.207031 122.878906 190.835938 123.304688 193.304688 122.171875 C 197.816406 120.101563 198.9375 114.636719 196.480469 111.519531 C 196.105469 111.042969 195.578125 110.539063 195.140625 110.21875 C 194.898438 110.042969 194.597656 109.871094 194.328125 109.71875 C 194.242188 109.667969 193.949219 109.507813 193.898438 109.472656 C 193.855469 109.445313 193.800781 109.40625 193.757813 109.378906 C 193.714844 109.347656 193.660156 109.300781 193.621094 109.273438 C 193.582031 109.242188 193.515625 109.183594 193.484375 109.15625 C 193.453125 109.132813 193.390625 109.085938 193.351563 109.039063 C 198.867188 106.914063 198.652344 98.667969 193.15625 96.140625 C 190.164063 94.765625 176.695313 95.320313 172.40625 95.386719 Z M 429.988281 122.734375 L 430.019531 119.011719 C 427.734375 118.757813 421.304688 119.082031 418.953125 118.929688 C 417.59375 118.84375 416.707031 118.628906 415.941406 117.9375 C 415.371094 117.417969 414.675781 116.359375 414.910156 115.101563 L 422.867188 115.113281 L 422.867188 115.097656 L 430.722656 115.097656 C 430.867188 114.316406 430.941406 113.488281 430.929688 112.605469 C 430.878906 108.363281 428.578125 105.15625 426.308594 103.636719 C 424.589844 102.484375 425.03125 102.535156 422.71875 102.535156 C 422.613281 102.535156 422.496094 102.535156 422.363281 102.535156 C 421.929688 102.480469 421.488281 102.488281 421.003906 102.503906 C 419.769531 102.476563 418.328125 102.457031 417.570313 102.558594 C 416.128906 102.613281 414.980469 102.835938 413.65625 103.636719 C 411.144531 105.15625 408.601563 108.363281 408.542969 112.605469 C 408.484375 117.035156 410.785156 120.214844 413.441406 121.792969 C 415.289063 122.890625 417.136719 122.757813 419.5 122.757813 C 421.695313 122.757813 427.855469 122.894531 429.988281 122.734375 Z M 416.550781 110.878906 L 414.847656 110.871094 C 414.882813 107.714844 416.027344 106.890625 417.679688 106.730469 C 418.390625 106.808594 419.125 106.785156 419.839844 106.753906 C 420.703125 106.796875 421.617188 106.84375 422.535156 106.746094 C 424.085938 106.964844 425.199219 107.851563 425.226563 110.871094 L 416.550781 110.871094 Z M 416.550781 110.878906 "/>
<g clip-path="url(#clip4)" clip-rule="nonzero">
<path style=" stroke:none;fill-rule:evenodd;fill:rgb(0%,0%,0%);fill-opacity:1;" d="M 515.203125 166.203125 L 515.195313 159.867188 C 512.222656 159.867188 509.285156 159.871094 506.34375 159.867188 C 503.597656 159.867188 500.523438 159.855469 500.457031 163.011719 C 500.394531 166.054688 503.300781 166.207031 506.121094 166.203125 C 509.148438 166.191406 512.175781 166.203125 515.203125 166.203125 Z M 478.144531 144.113281 L 478.105469 140.410156 C 476.929688 140.132813 470.847656 140.210938 469.425781 140.34375 L 469.429688 172.796875 L 478.074219 172.828125 L 478.113281 147.40625 L 487.792969 147.382813 C 487.867188 145.601563 487.800781 143.828125 487.820313 142.085938 C 487.835938 141.09375 488.074219 140.238281 487.375 139.941406 C 486.957031 139.761719 485.289063 139.804688 484.789063 139.859375 C 479.683594 140.421875 479.230469 143.21875 478.144531 144.113281 Z M 530.503906 172.816406 L 539.28125 172.832031 L 539.347656 128.9375 L 530.570313 128.894531 Z M 447.671875 140.285156 L 442.199219 140.308594 L 442.207031 147.042969 L 447.628906 147.128906 C 448.027344 152.390625 446.878906 163.378906 448.371094 167.542969 C 449.175781 169.796875 451.457031 171.839844 453.910156 172.523438 C 456.050781 173.117188 461.734375 172.835938 464.3125 172.835938 L 464.386719 166.429688 C 459.285156 166.429688 456.332031 166.261719 456.355469 160.789063 C 456.371094 156.515625 456.074219 151.265625 456.410156 147.121094 L 464.738281 147.121094 L 464.824219 140.285156 L 456.398438 140.285156 L 456.351563 128.960938 L 447.722656 128.898438 Z M 403.984375 173.011719 L 404.035156 166.980469 C 400.332031 166.566406 389.917969 167.085938 386.105469 166.84375 C 383.902344 166.707031 382.46875 166.355469 381.230469 165.234375 C 380.304688 164.398438 379.175781 162.679688 379.558594 160.640625 L 392.449219 160.660156 L 392.449219 160.632813 L 405.175781 160.632813 C 405.40625 159.371094 405.527344 158.027344 405.511719 156.601563 C 405.429688 149.726563 401.699219 144.527344 398.023438 142.066406 C 395.242188 140.207031 395.949219 140.285156 392.203125 140.285156 C 392.039063 140.285156 391.84375 140.285156 391.632813 140.28125 C 390.929688 140.203125 390.214844 140.210938 389.425781 140.230469 C 387.429688 140.1875 385.09375 140.152344 383.867188 140.320313 C 381.53125 140.414063 379.671875 140.765625 377.523438 142.066406 C 373.457031 144.527344 369.335938 149.726563 369.242188 156.601563 C 369.148438 163.773438 372.871094 168.929688 377.175781 171.484375 C 380.167969 173.257813 383.164063 173.046875 386.992188 173.046875 C 390.546875 173.046875 400.527344 173.269531 403.984375 173.011719 Z M 382.210938 153.796875 L 379.457031 153.789063 C 379.511719 148.671875 381.367188 147.339844 384.042969 147.085938 C 385.191406 147.210938 386.382813 147.171875 387.542969 147.113281 C 388.941406 147.1875 390.425781 147.261719 391.90625 147.105469 C 394.421875 147.460938 396.222656 148.902344 396.273438 153.789063 L 382.214844 153.792969 Z M 408.679688 172.808594 L 417.378906 172.828125 L 417.417969 147.617188 C 432.382813 147.460938 430.214844 146.410156 430.214844 165.191406 C 430.214844 167.34375 430.011719 170.8125 430.285156 172.808594 L 438.953125 172.804688 C 439.203125 169.261719 439 155.253906 439 150.667969 C 439 144.828125 435.378906 140.867188 429.136719 140.410156 L 408.679688 140.332031 L 408.683594 172.808594 Z M 332.308594 151.332031 C 332.296875 160.609375 336.027344 168.105469 341.882813 171.101563 C 345.714844 173.066406 349.875 172.835938 354.609375 172.835938 C 359.503906 172.835938 364.398438 172.835938 369.289063 172.835938 L 369.285156 164.84375 C 366.199219 164.84375 351.992188 165.027344 350.226563 164.769531 C 340.421875 163.335938 340.890625 139.398438 349.390625 137.515625 C 352.519531 136.828125 364.761719 137.828125 369.1875 137.304688 L 369.246094 128.992188 C 366.722656 128.484375 357.769531 128.894531 354.609375 128.894531 C 349.5625 128.894531 345.902344 129.0625 341.9375 131.160156 C 335.871094 134.367188 332.324219 142.039063 332.308594 151.332031 Z M 493.417969 147.464844 C 497.464844 147.800781 502.875 147.503906 507.003906 147.503906 C 509.003906 147.503906 511.667969 147.167969 513.140625 148.273438 C 514.777344 149.503906 515.234375 150.886719 515.199219 153.578125 C 512.273438 153.578125 500.316406 153.390625 498.410156 153.726563 C 488.109375 155.53125 488.914063 172.886719 500.40625 172.886719 L 524.15625 172.867188 C 524.382813 170.078125 524.214844 157.300781 524.214844 153.527344 C 524.207031 138.9375 513.429688 140.285156 504.363281 140.285156 C 501.320313 140.285156 496.203125 139.984375 493.402344 140.367188 Z M 493.417969 147.464844 "/>
</g>
<path style=" stroke:none;fill-rule:evenodd;fill:rgb(29.417419%,39.208984%,61.521912%);fill-opacity:1;" d="M 267.5625 131.820313 L 261.667969 131.820313 C 259.691406 132.703125 256.363281 132.292969 251.285156 135.878906 C 250.824219 136.203125 250.300781 136.582031 249.917969 136.878906 C 249.371094 137.308594 249.203125 137.582031 248.742188 137.953125 C 246.847656 136.855469 246.699219 136.042969 242.664063 134.015625 C 241.449219 133.402344 240.320313 133.023438 239.007813 132.664063 C 237.839844 132.34375 236.09375 132.195313 235.210938 131.820313 L 230.296875 131.820313 C 227.882813 132.820313 225.632813 132.070313 220.183594 135.496094 C 210.46875 141.601563 206.832031 154.523438 211.585938 164.800781 C 216.34375 175.089844 228 180.753906 239.363281 177.417969 C 242.566406 176.476563 246.824219 174.21875 248.304688 172.207031 C 250.296875 172.972656 257.226563 180.683594 269.816406 177.753906 C 292.476563 172.472656 293.632813 141.339844 273.101563 133.421875 C 271.449219 132.78125 268.816406 132.410156 267.5625 131.820313 Z M 243.890625 166.089844 C 242.898438 163.101563 239.097656 156.097656 244.355469 154.917969 C 249.492188 153.769531 248.621094 159.671875 251.492188 163.894531 C 255.863281 170.328125 266.082031 173.847656 274.082031 167.535156 C 285.488281 158.539063 280.011719 140.289063 265.558594 139.378906 C 260.507813 139.058594 255.824219 141.316406 253.4375 143.933594 C 253.632813 145.628906 255.242188 147.535156 255.339844 149.84375 C 255.445313 152.339844 253.644531 154.09375 251.074219 153.796875 C 247.050781 153.332031 249.042969 149.628906 244.308594 144.496094 C 238.5 138.207031 228.636719 137.339844 221.9375 143.746094 C 215.804688 149.613281 215.082031 159.726563 221.546875 166.070313 C 223.035156 167.53125 224.058594 168.425781 226.1875 169.402344 C 232.617188 172.347656 241.3125 170.058594 243.890625 166.089844 Z M 290.085938 195.925781 L 293.078125 195.925781 C 294.132813 195.019531 295.050781 194.542969 295.3125 192.917969 C 295.660156 190.738281 295.070313 181.042969 295.460938 177.09375 C 308.046875 180.910156 320.03125 174.285156 323.996094 162.503906 C 324.457031 161.128906 324.859375 158.160156 325.222656 157.300781 L 325.222656 152.277344 C 324.453125 150.714844 324.84375 148.9375 322.648438 144.445313 C 321.5625 142.222656 319.734375 139.800781 318.324219 138.425781 C 316.882813 137.015625 314.5 135.304688 312.222656 134.183594 C 308.070313 132.128906 306.269531 132.546875 304.617188 131.820313 L 299.167969 131.820313 C 298.164063 132.261719 295.070313 132.757813 293.613281 133.300781 C 281.757813 137.695313 286.90625 143.535156 290.339844 143.320313 C 292.804688 143.167969 294.414063 139.746094 300.988281 139.371094 C 313.574219 138.652344 322.285156 152.652344 315.117188 163.671875 C 313.433594 166.261719 310.542969 168.78125 306.949219 169.972656 C 300.957031 171.964844 299.273438 170.179688 295.402344 168.746094 C 295.359375 166.820313 295.148438 165.328125 294.082031 164.441406 C 292.96875 163.523438 290.863281 163.273438 289.421875 164.253906 C 287.050781 165.863281 287.851563 171.246094 287.851563 174.65625 L 287.84375 192.105469 C 287.941406 194.523438 288.839844 194.835938 290.085938 195.925781 Z M 172.191406 151.964844 L 172.191406 157.878906 C 173.054688 159.820313 172.550781 162.082031 175.320313 166.800781 C 177 169.671875 178.746094 171.414063 180.953125 173.285156 C 192.355469 182.964844 211.085938 176.507813 211.039063 170.519531 C 211.023438 168.582031 209.847656 167.238281 208.214844 166.914063 C 204.925781 166.265625 204.871094 168.847656 199.421875 170.289063 C 195.964844 171.207031 191.902344 170.792969 188.96875 169.40625 C 176.140625 163.339844 176.867188 144.976563 190.324219 140.207031 C 195.308594 138.433594 200.554688 139.433594 204.742188 142.402344 C 208.347656 144.957031 211.832031 141.792969 210.875 138.386719 C 209.753906 134.402344 199.421875 132.183594 198.691406 131.820313 L 192.335938 131.820313 C 190.9375 132.503906 188.464844 132.402344 184.757813 134.347656 C 173.617188 140.195313 173.347656 149.511719 172.191406 151.964844 Z M 172.191406 151.964844 "/>
</g>
</svg>
