<?xml version="1.0" encoding="UTF-8"?>
<svg xmlns="http://www.w3.org/2000/svg" xmlns:xlink="http://www.w3.org/1999/xlink" width="473.61pt" height="48.19pt" viewBox="0 0 473.61 48.19" version="1.1">
<defs>
<clipPath id="clip1">
  <path d="M 425 19 L 457 19 L 457 48.191406 L 425 48.191406 Z M 425 19 "/>
</clipPath>
<clipPath id="clip2">
  <path d="M 450 6 L 473.609375 6 L 473.609375 47 L 450 47 Z M 450 6 "/>
</clipPath>
</defs>
<g id="surface1">
<path style=" stroke:none;fill-rule:nonzero;fill:rgb(1.960754%,46.273804%,74.116516%);fill-opacity:1;" d="M 465.109375 5.726563 C 457.367188 -0.855469 446.257813 -1.863281 437.453125 3.222656 C 431.753906 6.515625 427.601563 12.089844 426.066406 18.515625 L 426.015625 18.730469 L 457.765625 18.730469 L 465.222656 5.820313 L 465.109375 5.726563 "/>
<g clip-path="url(#clip1)" clip-rule="nonzero">
<path style=" stroke:none;fill-rule:nonzero;fill:rgb(1.960754%,46.273804%,74.116516%);fill-opacity:1;" d="M 440.632813 19.628906 L 425.832031 19.628906 L 425.804688 19.773438 C 425.535156 21.234375 425.398438 22.695313 425.398438 24.121094 C 425.398438 32.691406 430.019531 40.683594 437.460938 44.980469 C 443.15625 48.269531 450.058594 49.074219 456.390625 47.1875 L 456.601563 47.125 L 456.492188 46.933594 C 455.828125 45.78125 441.144531 20.339844 440.78125 19.714844 L 440.730469 19.628906 L 440.632813 19.628906 "/>
</g>
<g clip-path="url(#clip2)" clip-rule="nonzero">
<path style=" stroke:none;fill-rule:nonzero;fill:rgb(1.960754%,46.273804%,74.116516%);fill-opacity:1;" d="M 465.792969 6.621094 L 450.027344 33.9375 L 457.476563 46.839844 L 457.613281 46.792969 C 467.183594 43.375 473.613281 34.253906 473.613281 24.097656 C 473.613281 17.507813 470.859375 11.125 466.0625 6.582031 L 465.902344 6.429688 L 465.792969 6.621094 "/>
</g>
<path style=" stroke:none;fill-rule:nonzero;fill:rgb(1.960754%,46.273804%,74.116516%);fill-opacity:1;" d="M 33.195313 19.925781 C 32.046875 18.78125 28.976563 15.886719 24.21875 15.886719 C 19.519531 15.886719 15.964844 19.324219 15.964844 24.203125 C 15.964844 24.742188 16.023438 26.25 16.6875 27.695313 C 17.53125 29.441406 19.820313 32.335938 24.699219 32.335938 C 25.664063 32.335938 26.6875 32.214844 27.589844 31.972656 C 30 31.371094 31.566406 30.226563 33.554688 28.71875 L 32.953125 44.683594 C 29.277344 45.769531 26.628906 46.492188 22.710938 46.492188 C 20.179688 46.492188 13.3125 46.25 7.53125 41.308594 C 0.601563 35.40625 0 27.214844 0 24.203125 C 0 14.082031 5.722656 8.296875 8.734375 6.007813 C 11.144531 4.140625 15.359375 1.730469 22.589844 1.730469 C 27.652344 1.730469 31.386719 3.117188 33.195313 3.660156 L 33.195313 19.925781 "/>
<path style=" stroke:none;fill-rule:nonzero;fill:rgb(1.960754%,46.273804%,74.116516%);fill-opacity:1;" d="M 55.480469 16.730469 C 53.914063 17.515625 51.203125 19.742188 51.203125 24.324219 C 51.265625 28.71875 54.09375 32.453125 58.734375 32.453125 C 60.359375 32.453125 61.386719 32.09375 61.988281 31.792969 C 63.554688 31.070313 66.445313 28.902344 66.445313 24.203125 C 66.445313 22.515625 66.082031 21.371094 65.84375 20.828125 C 64.699219 17.816406 62.046875 15.886719 58.792969 15.949219 C 58.191406 15.949219 56.925781 16.007813 55.480469 16.730469 Z M 72.410156 5.828125 C 74.398438 7.152344 79.398438 11.191406 81.203125 18.117188 C 81.445313 19.082031 81.867188 21.308594 81.867188 24.082031 C 81.867188 37.152344 72.410156 46.492188 59.335938 46.492188 C 57.710938 46.492188 54.21875 46.371094 50.179688 44.925781 C 41.082031 41.671875 35.78125 33.902344 35.78125 24.261719 C 35.78125 23.359375 35.84375 21.128906 36.445313 18.601563 C 38.253906 10.949219 43.253906 6.914063 45.660156 5.347656 C 47.890625 3.960938 52.167969 1.851563 58.613281 1.851563 C 61.023438 1.792969 66.808594 2.03125 72.410156 5.828125 "/>
<path style=" stroke:none;fill-rule:nonzero;fill:rgb(1.960754%,46.273804%,74.116516%);fill-opacity:1;" d="M 99.152344 21.613281 L 101.261719 21.613281 C 102.824219 21.613281 104.453125 21.550781 105.417969 20.105469 C 105.65625 19.742188 106.019531 19.019531 106.019531 17.9375 C 106.019531 14.082031 101.804688 14.441406 101.199219 14.441406 L 99.152344 14.441406 Z M 102.164063 2.9375 C 103.429688 2.9375 104.695313 2.9375 105.957031 3.058594 C 110.839844 3.359375 115.296875 4.683594 118.367188 8.71875 C 119.453125 10.105469 121.140625 12.695313 121.140625 17.09375 C 121.140625 22.636719 118.609375 25.347656 116.683594 26.730469 C 115.535156 27.515625 114.574219 27.9375 113.246094 28.417969 L 123.550781 45.46875 L 107.042969 45.46875 L 99.152344 29.863281 L 99.152344 45.46875 L 84.574219 45.46875 L 84.574219 2.9375 L 102.164063 2.9375 "/>
<path style=" stroke:none;fill-rule:nonzero;fill:rgb(1.960754%,46.273804%,74.116516%);fill-opacity:1;" d="M 141.5 21.851563 L 143.007813 21.851563 C 144.632813 21.851563 146.320313 21.730469 147.464844 20.40625 C 148.128906 19.742188 148.308594 18.960938 148.308594 18.058594 C 148.308594 17.273438 148.1875 16.613281 147.707031 16.007813 C 146.621094 14.441406 144.632813 14.441406 142.945313 14.441406 L 141.5 14.441406 Z M 143.789063 2.9375 C 147.523438 2.9375 149.332031 3.117188 151.140625 3.417969 C 153.128906 3.78125 157.765625 4.804688 160.839844 9.683594 C 163.128906 13.359375 163.246094 17.214844 163.246094 18.660156 C 163.246094 20.46875 163.007813 26.429688 158.066406 30.046875 C 154.632813 32.574219 150.65625 32.695313 146.5625 32.695313 L 141.5 32.695313 L 141.5 45.46875 L 125.898438 45.46875 L 125.898438 2.9375 L 143.789063 2.9375 "/>
<path style=" stroke:none;fill-rule:nonzero;fill:rgb(1.960754%,46.273804%,74.116516%);fill-opacity:1;" d="M 180.625 34.984375 L 183.214844 34.984375 C 184.117188 34.984375 185.625 34.984375 186.46875 34.625 C 187.1875 34.324219 188.335938 33.480469 188.335938 31.613281 C 188.335938 30.828125 188.152344 30.164063 187.671875 29.5625 C 186.585938 28.117188 184.722656 28.117188 183.152344 28.117188 L 180.625 28.117188 Z M 180.625 19.082031 L 182.3125 19.082031 C 183.636719 19.082031 185.144531 19.019531 186.105469 17.9375 C 186.40625 17.574219 186.769531 17.03125 186.769531 15.949219 C 186.769531 15.648438 186.769531 14.804688 186.285156 14.203125 C 185.082031 12.695313 182.550781 12.9375 182.3125 12.9375 L 180.625 12.9375 Z M 185.984375 2.9375 C 186.828125 2.9375 187.730469 2.9375 188.574219 2.996094 C 190.203125 3.058594 195.984375 3.238281 199.238281 8.117188 C 200.503906 9.984375 201.105469 12.152344 201.105469 14.441406 C 201.105469 17.214844 200.203125 19.804688 198.214844 21.671875 C 197.671875 22.214844 197.066406 22.636719 195.804688 23.417969 C 197.609375 24.261719 198.9375 24.984375 200.382813 26.429688 C 202.972656 29.140625 203.03125 32.03125 203.03125 33.417969 C 203.03125 34.742188 202.914063 37.515625 200.804688 40.226563 C 199.898438 41.371094 198.816406 42.335938 197.609375 43.058594 C 193.9375 45.347656 190.203125 45.40625 186.046875 45.46875 L 166.046875 45.46875 L 166.046875 2.9375 L 185.984375 2.9375 "/>
<path style=" stroke:none;fill-rule:nonzero;fill:rgb(1.960754%,46.273804%,74.116516%);fill-opacity:1;" d="M 266.105469 2.9375 L 275.261719 16.613281 L 277.429688 20.046875 C 278.273438 21.429688 279.058594 22.757813 279.839844 24.140625 C 279.78125 22.457031 279.71875 20.769531 279.71875 19.082031 L 279.71875 2.9375 L 294.480469 2.9375 L 294.480469 45.46875 L 279.71875 45.46875 L 271.40625 32.9375 C 270.382813 31.492188 269.417969 29.984375 268.457031 28.480469 C 267.671875 27.214844 266.949219 26.007813 266.226563 24.742188 C 266.285156 26.972656 266.347656 29.140625 266.347656 31.371094 L 266.347656 45.46875 L 251.585938 45.46875 L 251.585938 2.9375 L 266.105469 2.9375 "/>
<path style=" stroke:none;fill-rule:nonzero;fill:rgb(1.960754%,46.273804%,74.116516%);fill-opacity:1;" d="M 330.082031 19.925781 C 328.9375 18.78125 325.863281 15.886719 321.105469 15.886719 C 316.40625 15.886719 312.851563 19.324219 312.851563 24.203125 C 312.851563 24.742188 312.910156 26.25 313.574219 27.695313 C 314.417969 29.441406 316.707031 32.335938 321.585938 32.335938 C 322.550781 32.335938 323.574219 32.214844 324.476563 31.972656 C 326.886719 31.371094 328.453125 30.226563 330.441406 28.71875 L 329.839844 44.683594 C 326.164063 45.769531 323.515625 46.492188 319.597656 46.492188 C 317.070313 46.492188 310.199219 46.25 304.417969 41.308594 C 297.488281 35.40625 296.886719 27.214844 296.886719 24.203125 C 296.886719 14.082031 302.609375 8.296875 305.621094 6.007813 C 308.03125 4.140625 312.25 1.730469 319.476563 1.730469 C 324.539063 1.730469 328.273438 3.117188 330.082031 3.660156 L 330.082031 19.925781 "/>
<path style=" stroke:none;fill-rule:nonzero;fill:rgb(1.960754%,46.273804%,74.116516%);fill-opacity:1;" d="M 235.320313 2.9375 L 216.527344 2.9375 L 202.792969 45.46875 L 218.695313 45.46875 L 225.863281 17.636719 L 233.09375 45.46875 L 249.058594 45.46875 L 235.320313 2.9375 "/>
<path style=" stroke:none;fill-rule:nonzero;fill:rgb(1.960754%,46.273804%,74.116516%);fill-opacity:1;" d="M 363.453125 2.9375 L 344.65625 2.9375 L 330.921875 45.46875 L 346.828125 45.46875 L 353.996094 17.636719 L 361.222656 45.46875 L 377.1875 45.46875 L 363.453125 2.9375 "/>
</g>
</svg>
