<svg xmlns="http://www.w3.org/2000/svg" viewBox="0 0 1133.9 290.3"><defs><style>.cls-1{fill:#f45000;}</style></defs><g id="Calque_2" data-name="Calque 2"><g id="Calque_1-2" data-name="Calque 1"><g id="Logotype"><path d="M46.2,247.2v14.3H16.1v27.6H0V217H53.9v14.3H16v15.9Z"></path><path d="M64.9,217.1H81v72.1H64.9Z"></path><path d="M112.1,235.6h-.2v53.5H96.4V217h22l27.2,48.4h.2V217h15.5v72.1H142Z"></path><path d="M225.4,277H192.3l-4.9,12.2H170.6l30.7-72.1h15.5l30.7,72.1H230.3Zm-16.7-41.5-11,27.7h22.2l-11.1-27.7Z"></path><path d="M272.5,235.6h-.2v53.5H256.8V217h22L306,265.4h.2V217h15.5v72.1H302.4Z"></path><path d="M393.5,221.6v17.6h-.8c-4.6-5.8-11.8-8.9-20.6-8.9-13.9,0-23,9.1-23,22.8s9.1,22.8,23,22.8c8.7,0,16.1-3,20.6-8.9h.8v17.6c-5.8,3.8-12.3,5.6-22.1,5.6-23,0-38.5-15.4-38.5-37.1S348.4,216,371.4,216C381.3,216,387.7,217.7,393.5,221.6Z"></path><path d="M406.2,217.1h16.1v72.1H406.2Z"></path><path d="M486.3,277H453.2l-4.9,12.2H431.5l30.7-72.1h15.5l30.7,72.1H491.1Zm-16.7-41.5-11,27.7h22.2l-11.1-27.7Z"></path><path d="M517.7,289.1V217h16.1v57.7h36.4V289H517.7Z"></path><path d="M653,221.3v16.6h-.8c-4.8-4.9-12.9-7.7-22-7.7-7.9,0-12.9,3-12.9,7.9,0,4.1,3.1,6,13.9,7.2,19,2.1,26.2,8.6,26.2,22.4,0,14.4-10.4,22.6-28.9,22.6-11.8,0-21.1-2.2-26.8-6.3V267.4h.8c6.7,5.6,15.7,8.7,25.5,8.7,8.8,0,13.5-2.7,13.5-7.9,0-4.3-3.4-6.3-14.3-7.5-18.6-2.1-25.7-8.2-25.7-21.5,0-14.4,10.9-23.1,29.1-23.1C639.4,216,648.5,218.2,653,221.3Z"></path><path d="M714.6,259.7H684.5v15.1h37.9v14.3H668.5V217h53.9v14.3H684.5v14.9h30.1Z"></path><path d="M751.4,289.1H735.3V217h32.3c18,0,27.2,8,27.2,23.6,0,11.5-5.1,18.9-15.1,21.8L797,289.1H778.1L763.4,264H751.2v25.1ZM767,249.7c7.9,0,11.6-2.9,11.6-9.1s-3.7-9.2-11.6-9.2H751.4v18.3Z"></path><path d="M828.3,289.1,799.9,217h17.3l19.2,51.3h.2L855.7,217h16.8l-28.4,72.1Z"></path><path d="M881.7,217.1h16.1v72.1H881.7Z"></path><path d="M969.5,221.6v17.6h-.8c-4.6-5.8-11.8-8.9-20.6-8.9-13.9,0-23,9.1-23,22.8s9.1,22.8,23,22.8c8.7,0,16.1-3,20.6-8.9h.8v17.6c-5.8,3.8-12.3,5.6-22.1,5.6-23,0-38.5-15.4-38.5-37.1S924.4,216,947.4,216C957.3,216,963.7,217.7,969.5,221.6Z"></path><path d="M1028.4,259.7H998.3v15.1h37.9v14.3H982.3V217h53.9v14.3H998.3v14.9h30.1Z"></path><path d="M1097.6,221.3v16.6h-.8c-4.8-4.9-12.9-7.7-22-7.7-7.9,0-12.9,3-12.9,7.9,0,4.1,3.1,6,13.9,7.2,19,2.1,26.2,8.6,26.2,22.4,0,14.4-10.4,22.6-28.9,22.6-11.8,0-21.1-2.2-26.8-6.3V267.4h.8c6.7,5.6,15.7,8.7,25.5,8.7,8.8,0,13.5-2.7,13.5-7.9,0-4.3-3.4-6.3-14.3-7.5-18.6-2.1-25.7-8.2-25.7-21.5,0-14.4,10.9-23.1,29.1-23.1C1084,216,1093.1,218.2,1097.6,221.3Z"></path><polygon points="29.5 10.7 1.5 10.7 1.5 159.4 29.2 159.4 29.2 61.5 67.6 128.3 88.4 128.3 126.8 61.5 126.8 159.4 154.5 159.4 154.5 10.7 126.5 10.7 78 97.3 29.5 10.7"></polygon><polygon points="697.8 10.7 669.3 10.7 669.3 159.4 767.3 159.4 767.3 133.6 697.8 133.6 697.8 10.7"></polygon><rect x="584.1" y="10.7" width="28.5" height="148.7"></rect><rect x="803.6" y="10.7" width="28.5" height="148.7"></rect><polygon points="1065.6 133.6 1065.6 95.7 1126.5 95.7 1126.5 70.4 1065.6 70.4 1065.6 36.8 1133.9 36.8 1133.9 10.7 1037.2 10.7 1037.2 159.4 1133.9 159.4 1133.9 133.6 1065.6 133.6"></polygon><polygon points="990.8 36.9 990.8 10.7 883.7 10.7 883.7 36.8 957 36.8 879.9 133.6 879.9 159.4 990.9 159.4 990.9 133.6 915.1 133.6 990.8 36.9"></polygon><path d="M228.2,81.6a52.65,52.65,0,0,1,79.9-45V4.7A81.61,81.61,0,0,0,199.2,81.6a78.76,78.76,0,0,0,3.2,22.4h30.9A51.14,51.14,0,0,1,228.2,81.6Z"></path><path d="M339.8,88.6a52.65,52.65,0,0,1-79.9,45v31.9A81.61,81.61,0,0,0,368.8,88.6a78.76,78.76,0,0,0-3.2-22.4H334.7A51.14,51.14,0,0,1,339.8,88.6Z"></path><rect class="cls-1" x="190.44" y="69.79" width="187.2" height="30.7" transform="translate(15.98 211.91) rotate(-42)"></rect><path d="M509.5,81.3c13.8-4.2,20.1-16.4,20.1-30,0-24.2-16.2-40.6-51.9-40.6H415.8V159.4h65.3c40.2,0,56-17.8,56-43.8C537,98.5,527.6,85.3,509.5,81.3ZM443.8,36.8h33.7c15.7,0,23.9,4.7,23.9,17.4,0,12.2-8.2,18-23.9,18H443.8Zm36.6,96.8H443.8V94.1h36.6c18.2,0,26.8,6.6,26.8,20.1S498.5,133.6,480.4,133.6Z"></path></g></g></g></svg>